<svg xmlns="http://www.w3.org/2000/svg" viewBox="0 0 600 160" role="img" aria-label="Sornam AI">
  <defs>
    <linearGradient id="goldL" x1="0" y1="0" x2="1" y2="1">
      <stop offset="0" stop-color="#8A6D1F"/>
      <stop offset="0.45" stop-color="#C9A227"/>
      <stop offset="0.75" stop-color="#E7C25C"/>
      <stop offset="1" stop-color="#D9B43E"/>
    </linearGradient>
  </defs>
  <g transform="translate(6,-4)">
    <path d="M50,46 L90,46 L114,72 L70,122 L26,72 Z" fill="url(#goldL)"/>
    <path d="M50,46 L62,72 L26,72 Z" fill="#FBEDB4" opacity="0.5"/>
    <g stroke="#5E4715" stroke-width="1.3" stroke-linejoin="round" fill="none" opacity="0.55">
      <path d="M26,72 L114,72"/><path d="M50,46 L62,72"/><path d="M90,46 L78,72"/>
      <path d="M62,72 L70,122"/><path d="M78,72 L70,122"/><path d="M26,72 L70,122"/>
      <path d="M114,72 L70,122"/><path d="M50,46 L26,72"/><path d="M90,46 L114,72"/>
    </g>
    <path d="M120,40 l2.6,6.2 l6.2,2.6 l-6.2,2.6 l-2.6,6.2 l-2.6,-6.2 l-6.2,-2.6 l6.2,-2.6 z" fill="url(#goldL)"/>
  </g>
  <text x="160" y="88" font-family="'Cormorant Garamond','Times New Roman',Georgia,serif" font-size="66" font-weight="600" letter-spacing="0.5" fill="#14130F">Sornam</text>
  <text x="455" y="88" font-family="'Cormorant Garamond','Times New Roman',Georgia,serif" font-size="66" font-weight="600" letter-spacing="2" fill="#9A7B1C">AI</text>
  <text x="162" y="116" font-family="Inter,Helvetica,Arial,sans-serif" font-size="13.5" letter-spacing="3.2" fill="#6B655A">THE BRAIN OF YOUR JEWELLERY BUSINESS</text>
</svg>
